PathFileType	4	(X/Y/Z)	D:\TRACE\v60_Jaco2_6-2-23\BothDRS_Motion3_2-v60.trc
DataRate	CameraRate	NumFrames	NumMarkers	Units	OrigDataRate	OrigDataStartFrame	OrigNumFrames
100.00	100.00	      38	9	mm	100.00	2626	      7000
Frame#	Time	front left toe			Front right toe			aft left toe			aft right toe			Arm			FL body			FR body			AL Body			AR Body			
		X1	Y1	Z1	X2	Y2	Z2	X3	Y3	Z3	X4	Y4	Z4	X5	Y5	Z5	X6	Y6	Z6	X7	Y7	Z7	X8	Y8	Z8	X9	Y9	Z9	

2626	26.250	-172.22490	43.23544	-288.42941	226.75043	135.13594	-309.96292	-126.95996	67.10771	319.34305	213.23003	-10.96917	326.54056	26.57728	1155.71643	-556.29688	-54.59018	557.29083	-458.15439	104.26026	556.56708	-459.27652	-40.91776	503.85858	484.63150	110.59716	494.73035	483.26050	
2627	26.260	-172.51665	42.89745	-288.32687	223.69182	147.25237	-306.71924	-132.22519	78.51608	322.19086	213.04678	-11.01217	326.46414	23.58314	1156.09021	-554.26819	-55.61488	557.26312	-456.32925	102.86822	556.95605	-457.74332	-41.74320	502.88361	486.11829	109.85941	494.18497	484.86749	
2628	26.270	-172.72749	42.69643	-288.40573	221.75803	158.55954	-303.21985	-134.75536	89.10330	325.03867	212.98888	-10.95678	326.61920	20.47351	1156.69910	-551.89514	-56.87583	557.23315	-454.67780	101.83400	557.24805	-456.08200	-42.39989	502.33936	487.83630	108.98875	493.93948	486.44427	
2629	26.280	-172.82564	42.57717	-288.45105	219.92043	168.38263	-300.15283	-137.05180	98.58588	328.28589	212.85640	-11.00181	326.68036	17.90966	1157.39624	-549.31769	-58.04671	557.18347	-453.03015	99.94917	557.51062	-454.30649	-42.68181	502.04761	489.61856	108.57732	493.91711	488.11761	
2630	26.290	-172.94675	42.27481	-288.34793	218.08026	176.44499	-296.51584	-140.79536	107.68725	331.05405	212.69627	-10.89428	326.69455	15.57038	1157.81128	-547.08405	-59.36333	557.06403	-451.14526	98.74282	557.64960	-452.56122	-43.42863	501.65848	491.28940	108.05777	493.94833	489.75400	
2631	26.300	-173.02243	41.96487	-288.13275	215.07837	180.98785	-292.44937	-144.06065	113.31488	334.92813	212.51671	-10.87286	326.63651	13.27757	1157.94641	-545.30286	-61.17876	557.27875	-449.28455	97.84631	558.00610	-451.11386	-44.13654	501.35022	493.03348	107.54530	493.45126	490.63547	
2632	26.310	-173.08490	41.58749	-287.93524	212.21402	183.06738	-287.88486	-149.32169	116.23896	339.43985	212.39352	-10.70834	326.55853	11.52215	1157.82263	-543.29810	-62.47890	557.34552	-447.28659	96.41469	558.35925	-449.26135	-44.37267	501.11719	494.91269	107.30560	493.49463	492.53500	
2633	26.320	-173.10025	41.42476	-287.83075	209.73691	181.70271	-282.79269	-153.73409	115.81033	344.18481	212.21049	-10.57258	326.37823	9.49234	1157.80481	-541.51556	-63.97583	557.33624	-445.35828	94.86382	558.51898	-447.38272	-44.81841	500.96265	496.76721	107.13026	493.47858	494.34241	
2634	26.330	-173.27133	41.26191	-287.77734	206.69273	178.15823	-277.46777	-157.45737	112.63440	349.62003	212.01689	-10.11550	326.33041	7.58683	1157.80981	-539.77563	-65.39391	557.32233	-443.39771	92.67334	558.91058	-445.30112	-45.28172	501.14709	498.78857	106.92271	493.84140	496.18378	
2635	26.340	-173.50719	41.15207	-287.74731	203.03558	172.89154	-272.91196	-160.71544	108.73196	354.74310	212.02232	-9.85679	326.36029	4.81415	1157.88452	-537.86768	-66.82491	557.36053	-441.47809	91.31159	558.76440	-443.41583	-45.47668	501.59030	500.95523	106.31361	494.31937	497.94922	
2636	26.350	-173.78650	41.06979	-287.72595	199.94078	166.88820	-268.29388	-163.74251	104.30272	360.01401	211.98465	-9.63995	326.50537	1.92798	1157.97278	-535.92267	-68.50601	557.24738	-439.38956	89.86076	558.58777	-441.57581	-45.92563	501.75406	503.04553	105.90277	494.73224	499.71362	
2637	26.360	-173.94556	40.58252	-287.87576	194.77666	159.43794	-264.05847	-166.83638	98.84997	365.51984	212.01917	-9.37567	326.54965	-0.45354	1157.88440	-534.24695	-69.91005	556.76941	-437.14410	88.45244	558.51630	-439.71619	-46.23600	501.93671	505.12912	105.49225	494.94675	501.60287	
2638	26.370	-174.05083	40.06933	-287.54291	190.48734	151.01337	-259.74643	-171.04915	92.49073	371.19724	211.91608	-9.31372	326.60559	-2.09939	1157.47766	-532.44427	-71.23438	556.50256	-434.87289	86.81733	558.34406	-437.74496	-46.65520	501.97739	507.24896	105.33128	495.09860	503.71350	
2639	26.380	-174.07619	39.60545	-287.48376	186.69180	141.37161	-255.27046	-175.07555	85.08728	376.74963	211.90002	-9.20976	326.56647	-3.49144	1156.88647	-530.54565	-72.86922	556.18127	-432.70303	85.17296	558.09009	-435.81491	-46.60843	501.99997	509.34418	105.05820	495.11646	505.71643	
2640	26.390	-174.18654	39.31927	-287.51126	183.35561	131.29082	-249.72874	-178.38058	76.04980	382.32440	211.89116	-9.09864	326.52960	-5.26507	1156.20764	-528.72375	-74.41940	555.82983	-430.49121	83.54858	557.82404	-433.85770	-46.66098	501.91046	511.47433	104.84518	495.09479	507.60263	
2641	26.400	-174.36009	39.09672	-287.53641	180.87590	120.27848	-244.26921	-182.31985	66.83540	388.09143	211.90250	-8.96180	326.45108	-7.28540	1155.92261	-526.90369	-76.03733	555.42505	-428.27625	81.81419	557.52002	-432.03754	-47.30288	501.77344	513.59845	104.49954	495.02734	509.69473	
2642	26.410	-174.48988	38.74714	-287.38239	176.74420	108.47464	-238.84071	-185.06232	56.51735	394.42981	211.82703	-8.87439	326.44778	-9.14926	1155.61316	-525.13263	-77.91249	554.97119	-425.97406	80.24195	557.11420	-429.88071	-47.70433	501.78049	515.90802	104.04853	495.06638	511.70923	
2643	26.420	-174.44754	38.15268	-287.15417	173.63014	97.04272	-232.10419	-186.40947	45.33249	400.47729	211.79494	-8.58146	326.46539	-11.05310	1155.12122	-523.18054	-79.46347	554.61371	-423.88620	78.45233	556.70459	-427.89713	-47.70419	501.59897	517.78314	103.61366	495.06113	513.65613	
2644	26.430	-174.54529	37.82085	-287.10422	167.69409	86.01071	-229.50777	-188.92595	36.24457	405.77979	211.85541	-8.39998	326.58328	-12.46369	1154.86365	-520.87006	-80.95660	554.34607	-421.75131	76.91582	556.08960	-425.61395	-47.97640	501.67194	519.91223	103.14643	494.92221	515.61841	
2645	26.440	-174.90492	37.82586	-287.21722	165.11880	75.62481	-226.38715	-189.86269	26.96115	408.77725	211.87245	-8.18564	326.57355	-14.10037	1154.53992	-518.88580	-82.75894	554.05188	-419.39182	75.63056	555.73260	-423.81348	-49.15654	501.19901	521.86774	102.72473	494.70184	517.62885	
2646	26.450	-174.90340	37.17124	-287.03699	164.22993	66.82214	-224.82146	-192.00708	18.79156	411.55963	211.76994	-7.96091	326.70187	-15.15672	1153.84045	-516.70264	-84.40284	553.86871	-417.21170	74.31271	555.22614	-421.97165	-49.56242	500.94778	524.04852	102.41124	494.42926	519.74164	
2647	26.460	-175.04799	36.81010	-287.02640	163.08913	59.24519	-224.01205	-193.26366	11.49127	412.91647	211.84734	-7.71238	326.62711	-16.26182	1153.51746	-514.63000	-86.22319	553.34949	-414.75177	72.63468	554.84918	-419.91422	-50.06554	500.88470	526.21930	101.97871	494.05322	521.95215	
2648	26.470	-175.24483	36.36528	-287.03799	161.46123	52.70747	-222.64194	-193.65080	4.27737	413.73788	211.88046	-7.47816	326.55338	-17.02708	1153.19946	-512.33783	-87.83884	552.97107	-412.36340	70.54586	554.28870	-417.90762	-50.89966	500.62668	528.58307	100.90939	493.54056	523.98407	
2649	26.480	-175.27361	35.88340	-286.93604	161.40508	46.58060	-221.46457	-194.30582	-2.29156	414.19656	212.08963	-7.19241	326.49295	-17.77355	1152.80933	-509.92194	-89.74055	552.51196	-410.16013	68.89903	553.82501	-415.69147	-51.38929	500.40445	530.89313	100.35432	493.33801	525.87518	
2650	26.490	-175.04387	35.33020	-287.05765	160.07336	40.10941	-220.06473	-194.97343	-6.87187	414.30475	212.05022	-6.85372	326.31705	-19.09014	1152.46680	-507.49539	-91.51229	552.04785	-408.08826	66.88868	553.42676	-413.75986	-52.23343	500.17969	533.26355	99.50271	493.12973	527.88287	
2651	26.500	-175.04027	34.82901	-287.15259	159.76085	35.08436	-219.29851	-195.23630	-8.61330	414.97726	212.19939	-6.16855	326.32675	-20.53981	1152.04309	-505.30923	-93.02337	551.51471	-405.81662	65.34689	552.71661	-411.58362	-52.97787	501.44128	536.29169	98.60036	493.47739	529.95386	
2652	26.510	-175.01613	34.26783	-287.05182	160.21254	32.14208	-220.08762	-196.34831	-6.87636	414.52002	212.16180	-5.73084	326.58463	-22.31794	1151.65405	-503.47351	-94.94781	550.99927	-403.47687	63.17598	551.80267	-409.04031	-53.45839	503.07440	538.98889	98.34442	494.72183	532.47119	
2653	26.520	-174.79961	34.20166	-286.52670	160.87149	33.08496	-220.47673	-194.83063	-7.23773	414.67630	211.99847	-5.19918	327.22214	-23.94369	1150.98401	-502.21677	-96.53292	550.64252	-401.00296	61.76884	552.09399	-407.19540	-54.35145	503.78513	541.27661	97.41261	495.80951	534.59607	
2654	26.530	-174.70171	35.16302	-286.54114	160.41557	32.20152	-220.07864	-194.45575	-7.15333	415.65445	212.09758	-3.62286	326.47083	-26.05040	1150.87158	-501.38766	-98.03606	551.27216	-398.51205	60.54990	552.84283	-404.88858	-55.25332	504.25461	543.75861	96.76395	496.39865	536.73590	
2655	26.540	-172.23369	40.29194	-286.80652	159.94865	31.71591	-219.74736	-194.73120	-7.43131	415.58237	210.25685	-0.09391	328.01392	-27.78000	1151.00452	-499.73520	-99.93274	552.81750	-396.78137	58.80850	554.17609	-403.26572	-55.40879	503.87848	545.52930	96.31361	495.89471	538.42908	
2656	26.550	-169.93430	44.50517	-281.71075	159.68407	31.49797	-220.98788	-194.70972	-7.72063	415.16678	206.94623	3.61988	332.42487	-30.38385	1151.73743	-497.09329	-101.06838	553.48224	-395.45068	57.59804	554.74707	-401.70578	-55.87865	503.72992	546.69220	95.51302	495.44827	539.67706	
2657	26.560	-167.51405	49.35156	-277.49744	160.12943	31.24687	-220.58292	-194.76611	-7.26096	415.07568	200.81335	9.35285	336.13870	-32.63736	1153.19141	-493.77686	-102.26041	553.19952	-393.94312	56.59899	554.79913	-400.49380	-56.91295	503.68304	548.02502	94.79472	495.92691	541.00903	
2658	26.570	-169.21893	61.87906	-276.59869	160.54063	30.92681	-221.27394	-194.51494	-6.78901	415.08127	198.20284	21.59822	337.68878	-35.05519	1155.07349	-491.36871	-103.37667	552.72144	-392.81137	55.30665	554.59814	-399.27481	-57.64957	503.68338	549.78058	93.93195	496.23840	542.07532	
2659	26.580	-170.04723	72.77384	-273.35553	160.94099	30.52736	-220.74995	-194.38324	-6.74016	415.23276	198.21602	33.17608	340.93814	-37.08223	1156.07166	-489.20392	-104.13316	552.08667	-391.30643	54.16635	554.35327	-397.89856	-58.59718	503.49161	550.85443	93.19811	496.27707	543.68286	
2660	26.590	-171.94740	84.58879	-270.67514	160.65544	30.25214	-220.76814	-194.45683	-6.66890	415.33328	199.37633	47.70047	343.04959	-38.83104	1155.68787	-488.30981	-105.02409	551.82117	-389.93600	53.72259	554.16986	-396.52026	-59.47099	502.99509	552.05231	91.85928	495.63846	544.92780	
2661	26.600	-176.29480	98.15499	-266.83109	160.99403	29.59574	-221.47168	-194.39810	-6.26925	415.04044	199.69205	60.54474	346.69202	-40.83350	1154.89209	-487.53058	-105.44476	551.18243	-388.55515	52.99767	553.87518	-395.05682	-61.06012	502.22116	553.48401	90.97677	495.21768	546.62653	
2662	26.610	-180.98004	110.55626	-260.99292	161.52501	29.32603	-221.44630	-194.02426	-5.82988	414.97516	199.76411	73.57586	351.59515	-41.49510	1153.47681	-487.39539	-106.16131	550.67975	-387.34576	52.27243	553.51123	-393.74658	-62.08474	501.79990	554.61896	89.53506	494.87189	547.81665	
2663	26.620	-185.43085	121.95866	-254.54373	161.93745	29.22092	-221.35361	-193.10791	-5.94376	414.86295	197.47655	85.48404	357.03485	-42.31582	1152.44043	-487.19815	-106.71459	549.56061	-386.27451	51.28328	552.68243	-392.22009	-63.18422	501.30334	556.10980	88.64307	495.01666	549.15021	
